<svg width="40" height="40" viewBox="0 0 40 40" fill="none" xmlns="http://www.w3.org/2000/svg">
<path d="M20.0001 28.3333L15.0001 33.3333M20.0001 28.3333L25.0001 33.3333M20.0001 28.3333V20M20.0001 28.3333V35M20.0001 11.6667L15.0001 6.66667M20.0001 11.6667L25.0001 6.66667M20.0001 11.6667V20M20.0001 11.6667V5M20.0001 20L12.7833 15.8332M20.0001 20L27.217 24.1666M20.0001 20L12.7833 24.1666M20.0001 20L27.217 15.8332M27.217 24.1666L29.0471 30.9967M27.217 24.1666L34.0471 22.3364M27.217 24.1666L32.9905 27.5M12.7833 15.8332L5.95313 17.6634M12.7833 15.8332L10.9531 9.00312M12.7833 15.8332L7.00975 12.5M27.217 15.8332L34.0471 17.6634M27.217 15.8332L29.0471 9.00312M27.217 15.8332L32.9906 12.5M12.7833 24.1666L10.9531 30.9967M12.7833 24.1666L5.95312 22.3364M12.7833 24.1666L7.00985 27.5" stroke="#A9CDB1" stroke-width="2" stroke-linecap="round" stroke-linejoin="round"/>
</svg>
